{
  "accessors": [
    {
      "bufferView": 2,
      "componentType": 5126,
      "count": 10512,
      "max": [
        2.2216000556945801,
        1.5984699726104736,
        2.406480073928833
      ],
      "min": [
        -2.336400032043457,
        -1.5460599660873413,
        -0.026170000433921814
      ],
      "type": "VEC3"
    },
    {
      "bufferView": 2,
      "byteOffset": 126144,
      "componentType": 5126,
      "count": 10512,
      "max": [
        0.99984598159790039,
        0.99998778104782104,
        0.99999982118606567
      ],
      "min": [
        -0.99984622001647949,
        -0.9997551441192627,
        -1
      ],
      "type": "VEC3"
    },
    {
      "bufferView": 3,
      "componentType": 5126,
      "count": 10512,
      "max": [
        0.9999956488609314,
        0.99992018938064575,
        0.98613756895065308,
        1
      ],
      "min": [
        -0.99995875358581543,
        -0.99996268749237061,
        -0.99470400810241699,
        -1
      ],
      "type": "VEC4"
    },
    {
      "bufferView": 1,
      "componentType": 5126,
      "count": 10512,
      "max": [
        0.99810999631881714,
        0.98342001438140869
      ],
      "min": [
        0,
        0
      ],
      "type": "VEC2"
    },
    {
      "bufferView": 0,
      "componentType": 5125,
      "count": 33522,
      "max": [
        10511
      ],
      "min": [
        0
      ],
      "type": "SCALAR"
    },
    {
      "bufferView": 4,
      "componentType": 5126,
      "count": 2,
      "max": [
        10
      ],
      "min": [
        0.041669998317956924
      ],
      "type": "SCALAR"
    },
    {
      "bufferView": 5,
      "componentType": 5126,
      "count": 2,
      "max": [
        0,
        0,
        0
      ],
      "min": [
        0,
        0,
        0
      ],
      "type": "VEC3"
    },
    {
      "bufferView": 4,
      "byteOffset": 8,
      "componentType": 5126,
      "count": 240,
      "max": [
        10
      ],
      "min": [
        0.041669998317956924
      ],
      "type": "SCALAR"
    },
    {
      "bufferView": 6,
      "componentType": 5126,
      "count": 240,
      "max": [
        0,
        0,
        0.99997997283935547,
        1
      ],
      "min": [
        0,
        0,
        -0.99980998039245605,
        -0.0065700002014636993
      ],
      "type": "VEC4"
    },
    {
      "bufferView": 4,
      "byteOffset": 968,
      "componentType": 5126,
      "count": 2,
      "max": [
        10
      ],
      "min": [
        0.041669998317956924
      ],
      "type": "SCALAR"
    },
    {
      "bufferView": 5,
      "byteOffset": 24,
      "componentType": 5126,
      "count": 2,
      "max": [
        1,
        1,
        1
      ],
      "min": [
        1,
        1,
        1
      ],
      "type": "VEC3"
    }
  ],
  "animations": [
    {
      "channels": [
        {
          "sampler": 0,
          "target": {
            "node": 3,
            "path": "translation"
          }
        },
        {
          "sampler": 1,
          "target": {
            "node": 3,
            "path": "rotation"
          }
        },
        {
          "sampler": 2,
          "target": {
            "node": 3,
            "path": "scale"
          }
        }
      ],
      "name": "FelsAction",
      "samplers": [
        {
          "input": 5,
          "interpolation": "LINEAR",
          "output": 6
        },
        {
          "input": 7,
          "interpolation": "LINEAR",
          "output": 8
        },
        {
          "input": 9,
          "interpolation": "LINEAR",
          "output": 10
        }
      ]
    }
  ],
  "asset": {
    "extras": {
      "author": "gh1 (https://sketchfab.com/gh1)",
      "license": "CC-BY-4.0 (http://creativecommons.org/licenses/by/4.0/)",
      "source": "https://sketchfab.com/models/2ecb935dda704dce8bab666687c8766e",
      "title": "Fels"
    },
    "generator": "Sketchfab-3.19.3",
    "version": "2.0"
  },
  "bufferViews": [
    {
      "buffer": 0,
      "byteLength": 134088,
      "byteOffset": 0,
      "name": "floatBufferViews",
      "target": 34963
    },
    {
      "buffer": 0,
      "byteLength": 84096,
      "byteOffset": 134088,
      "byteStride": 8,
      "name": "floatBufferViews",
      "target": 34962
    },
    {
      "buffer": 0,
      "byteLength": 252288,
      "byteOffset": 218184,
      "byteStride": 12,
      "name": "floatBufferViews",
      "target": 34962
    },
    {
      "buffer": 0,
      "byteLength": 168192,
      "byteOffset": 470472,
      "byteStride": 16,
      "name": "floatBufferViews",
      "target": 34962
    },
    {
      "buffer": 0,
      "byteLength": 976,
      "byteOffset": 638664,
      "name": "floatBufferViews"
    },
    {
      "buffer": 0,
      "byteLength": 48,
      "byteOffset": 639640,
      "byteStride": 12,
      "name": "floatBufferViews"
    },
    {
      "buffer": 0,
      "byteLength": 3840,
      "byteOffset": 639688,
      "byteStride": 16,
      "name": "floatBufferViews"
    }
  ],
  "buffers": [
    {
      "byteLength": 643528,
      "uri": "scene.bin"
    }
  ],
  "images": [
    {
      "uri": "textures/material0_metallicRoughness.png"
    },
    {
      "uri": "textures/material0_baseColor.png"
    }
  ],
  "materials": [
    {
      "doubleSided": true,
      "name": "material0",
      "pbrMetallicRoughness": {
        "baseColorFactor": [
          1,
          1,
          1,
          1
        ],
        "baseColorTexture": {
          "index": 1,
          "texCoord": 0
        },
        "metallicFactor": 0,
        "metallicRoughnessTexture": {
          "index": 0,
          "texCoord": 0
        },
        "roughnessFactor": 0.59999999999999998
      }
    }
  ],
  "meshes": [
    {
      "name": "Fels_0",
      "primitives": [
        {
          "attributes": {
            "NORMAL": 1,
            "POSITION": 0,
            "TANGENT": 2,
            "TEXCOORD_0": 3
          },
          "indices": 4,
          "material": 0,
          "mode": 4
        }
      ]
    }
  ],
  "nodes": [
    {
      "children": [
        1
      ],
      "name": "RootNode (gltf orientation matrix)",
      "rotation": [
        -0.70710678118654746,
        -0,
        -0,
        0.70710678118654757
      ]
    },
    {
      "children": [
        2
      ],
      "name": "RootNode (model correction matrix)"
    },
    {
      "children": [
        3,
        5,
        7
      ],
      "name": "Root"
    },
    {
      "children": [
        4
      ],
      "name": "Fels"
    },
    {
      "mesh": 0,
      "name": "Fels_0"
    },
    {
      "children": [
        6
      ],
      "matrix": [
        0.60709000000000013,
        -0.23791000000000004,
        -0.75818000000000008,
        0,
        0.36487000000000008,
        0.93106,
        0,
        0,
        0.70591000000000004,
        -0.27664,
        0.65204000000000018,
        0,
        8.1360099999999989,
        0.54581000000000002,
        7.7828099999999996,
        1
      ],
      "name": "Sun"
    },
    {
      "name": "Sun"
    },
    {
      "children": [
        8
      ],
      "matrix": [
        0.46149000000000001,
        0.21145000000000003,
        0.86158000000000001,
        0,
        -0.41655000000000003,
        0.90910999999999997,
        0,
        0,
        -0.78327999999999998,
        -0.35889000000000004,
        0.50762000000000007,
        0,
        8.1360099999999989,
        0.54581000000000002,
        7.7828099999999996,
        1
      ],
      "name": "Sun.001"
    },
    {
      "name": "Sun.001"
    }
  ],
  "samplers": [
    {
      "magFilter": 9729,
      "minFilter": 9987,
      "wrapS": 10497,
      "wrapT": 10497
    }
  ],
  "scene": 0,
  "scenes": [
    {
      "name": "OSG_Scene",
      "nodes": [
        0
      ]
    }
  ],
  "textures": [
    {
      "sampler": 0,
      "source": 0
    },
    {
      "sampler": 0,
      "source": 1
    }
  ]
}

